<?xml version="1.0" encoding="utf-8"?>
<!-- Generator: Adobe Illustrator 21.1.0, SVG Export Plug-In . SVG Version: 6.00 Build 0)  -->
<svg version="1.1" id="Layer_1" xmlns="http://www.w3.org/2000/svg" xmlns:xlink="http://www.w3.org/1999/xlink" x="0px" y="0px"
	 viewBox="0 0 14 20" style="enable-background:new 0 0 14 20;" xml:space="preserve">
<style type="text/css">
	.st0{fill:#FF7733;}
</style>
<g>
	<path class="st0" d="M10.5,0h-9C0.7,0,0,0.7,0,1.5v17C0,19.3,0.7,20,1.5,20h9c0.8,0,1.5-0.7,1.5-1.5V16v-1V3V2V1.5
		C12,0.7,11.3,0,10.5,0z M11,18.5c0,0.3-0.2,0.5-0.5,0.5h-9C1.2,19,1,18.8,1,18.5V16h10V18.5z M11,15H1V3h10V15z M1,2V1.5
		C1,1.2,1.2,1,1.5,1h9C10.8,1,11,1.2,11,1.5V2H1z"/>
	<rect x="4" y="17" class="st0" width="4" height="1"/>
</g>
</svg>
