<?xml version="1.0" encoding="utf-8"?>
<!-- Generator: Adobe Illustrator 21.1.0, SVG Export Plug-In . SVG Version: 6.00 Build 0)  -->
<svg version="1.1" id="Layer_1" xmlns="http://www.w3.org/2000/svg" xmlns:xlink="http://www.w3.org/1999/xlink" x="0px" y="0px"
	 viewBox="0 0 24 24" style="enable-background:new 0 0 24 24;" xml:space="preserve">
<style type="text/css">
	.st0{fill:#FF7733;}
</style>
<g>
	<path class="st0" d="M15.5,16h-7C6,16,4,18,4,20.5C4,21.3,4.7,22,5.5,22h13c0.8,0,1.5-0.7,1.5-1.5C20,18,18,16,15.5,16z M18.5,21
		h-13C5.2,21,5,20.8,5,20.5C5,18.6,6.6,17,8.5,17h7c1.9,0,3.5,1.6,3.5,3.5C19,20.8,18.8,21,18.5,21z"/>
	<path class="st0" d="M12,15c3.3,0,6-2.7,6-6s-2.7-6-6-6S6,5.7,6,9S8.7,15,12,15z M12,4c2.8,0,5,2.2,5,5s-2.2,5-5,5s-5-2.2-5-5
		S9.2,4,12,4z"/>
</g>
</svg>
