<?xml version="1.0" encoding="utf-8"?>
<!-- Generator: Adobe Illustrator 21.1.0, SVG Export Plug-In . SVG Version: 6.00 Build 0)  -->
<svg version="1.1" id="Layer_1" xmlns="http://www.w3.org/2000/svg" xmlns:xlink="http://www.w3.org/1999/xlink" x="0px" y="0px"
	 viewBox="0 0 14 20" style="enable-background:new 0 0 14 20;" xml:space="preserve">
<style type="text/css">
	.st0{fill:none;stroke:#FF7733;stroke-linejoin:round;stroke-miterlimit:10;}
	.st1{fill:none;stroke:#FF7733;stroke-linejoin:round;}
	.st2{fill:none;stroke:#FF7733;stroke-linejoin:round;stroke-dasharray:0.9345,0.9345;}
</style>
<rect x="0.5" y="0.5" class="st0" width="11" height="11"/>
<rect x="0.5" y="13.5" class="st0" width="11" height="6"/>
<path class="st0" d="M0.5,8h4c0-0.8,0.7-1.5,1.5-1.5S7.5,7.2,7.5,8h4"/>
<line class="st0" x1="7" y1="7.2" x2="9.6" y2="4.6"/>
<circle class="st0" cx="3.5" cy="16.5" r="1"/>
<circle class="st0" cx="8.5" cy="16.5" r="1"/>
<g>
	<g>
		<path class="st1" d="M3,7.1c0-0.2,0-0.3,0-0.5"/>
		<path class="st2" d="M3.3,5.7c0.5-1,1.5-1.6,2.7-1.6c1.3,0,2.5,0.9,2.8,2.1"/>
		<path class="st1" d="M9,6.6c0,0.2,0,0.3,0,0.5"/>
	</g>
</g>
</svg>
