<?xml version="1.0" encoding="utf-8"?>
<!-- Generator: Adobe Illustrator 21.1.0, SVG Export Plug-In . SVG Version: 6.00 Build 0)  -->
<svg version="1.1" id="Layer_1" xmlns="http://www.w3.org/2000/svg" xmlns:xlink="http://www.w3.org/1999/xlink" x="0px" y="0px"
	 viewBox="0 0 24 24" style="enable-background:new 0 0 24 24;" xml:space="preserve">
<style type="text/css">
	.st0{fill:#E6E6E6;}
	.st1{fill:url(#SVGID_1_);}
	.st2{fill:url(#SVGID_2_);}
	.st3{fill:url(#SVGID_3_);}
	.st4{fill:url(#SVGID_4_);}
	.st5{fill:url(#SVGID_5_);}
	.st6{fill:url(#SVGID_6_);}
	.st7{fill:url(#SVGID_7_);}
	.st8{fill:url(#SVGID_8_);}
</style>
<linearGradient id="SVGID_1_" gradientUnits="userSpaceOnUse" x1="6.0482" y1="3.5143" x2="13.1192" y2="10.5854">
	<stop  offset="0" style="stop-color:#F0F0F0"/>
	<stop  offset="0.9942" style="stop-color:#DCDCDC"/>
</linearGradient>
<path class="st1" d="M15,10h-1V7c0-2.2-1.8-4-4-4S6,4.8,6,7v3H5V7c0-2.8,2.2-5,5-5s5,2.2,5,5V10z"/>
<linearGradient id="SVGID_2_" gradientUnits="userSpaceOnUse" x1="5.1875" y1="8.6875" x2="15.087" y2="18.587">
	<stop  offset="0" style="stop-color:#FFB300"/>
	<stop  offset="0.9942" style="stop-color:#FF7733"/>
</linearGradient>
<path class="st2" d="M15,19H5c-1.1,0-2-0.9-2-2v-7c0-1.1,0.9-2,2-2h10c1.1,0,2,0.9,2,2v7C17,18.1,16.1,19,15,19z"/>
<linearGradient id="SVGID_3_" gradientUnits="userSpaceOnUse" x1="17.5523" y1="21.7888" x2="14.2852" y2="18.5217">
	<stop  offset="0" style="stop-color:#FBAE17"/>
	<stop  offset="0.9942" style="stop-color:#FCEE21"/>
</linearGradient>
<path class="st3" d="M14.4,18.2l-0.5,3.2c0,0.3,0.3,0.5,0.5,0.3l1.3-0.9c0.1-0.1,0.2-0.1,0.4,0l1.3,0.9c0.2,0.2,0.5,0,0.5-0.3
	l-0.5-3.2c0-0.2-0.2-0.3-0.3-0.3h-2.3C14.6,17.9,14.4,18,14.4,18.2z"/>
<linearGradient id="SVGID_4_" gradientUnits="userSpaceOnUse" x1="18.6735" y1="17.5625" x2="13.2405" y2="12.1296" gradientTransform="matrix(0.9192 0.3937 -0.3937 0.9192 7.0884 -5.0534)">
	<stop  offset="0" style="stop-color:#FBAE17"/>
	<stop  offset="0.9942" style="stop-color:#FCEE21"/>
</linearGradient>
<polygon class="st4" points="17.1,18.7 15.9,18.2 14.6,18.7 13.8,17.6 12.5,17.2 12.5,15.8 11.8,14.8 12.5,13.7 12.5,12.3 
	13.8,11.9 14.6,10.8 15.9,11.3 17.1,10.8 17.9,11.9 19.2,12.3 19.2,13.7 20,14.7 19.2,15.8 19.2,17.2 17.9,17.6 "/>
<linearGradient id="SVGID_5_" gradientUnits="userSpaceOnUse" x1="17.9224" y1="16.8114" x2="13.9403" y2="12.8294">
	<stop  offset="0" style="stop-color:#0EC05C"/>
	<stop  offset="0.9942" style="stop-color:#8CC63F"/>
</linearGradient>
<circle class="st5" cx="15.9" cy="14.8" r="3"/>
</svg>
