<svg id="Layer_1" data-name="Layer 1" xmlns="http://www.w3.org/2000/svg" xmlns:xlink="http://www.w3.org/1999/xlink" viewBox="0 0 24 24">
  <defs>
    <linearGradient id="linear-gradient" x1="18.57" y1="16.57" x2="9.74" y2="7.74" gradientUnits="userSpaceOnUse">
      <stop offset="0" stop-color="#1a1a1a"/>
      <stop offset="1" stop-color="#666"/>
    </linearGradient>
    <linearGradient id="linear-gradient-2" x1="16.23" y1="19.73" x2="1.3" y2="4.8" xlink:href="#linear-gradient"/>
    <linearGradient id="linear-gradient-3" x1="13.12" y1="11.62" x2="4.2" y2="2.7" gradientUnits="userSpaceOnUse">
      <stop offset="0" stop-color="#f73"/>
      <stop offset="0.99" stop-color="#ffb300"/>
    </linearGradient>
    <linearGradient id="linear-gradient-4" x1="33.5" y1="2.75" x2="26.31" y2="-4.44" gradientTransform="matrix(1, 0, 0, -1, -14.25, 7.75)" gradientUnits="userSpaceOnUse">
      <stop offset="0" stop-color="#b3b3b3"/>
      <stop offset="1" stop-color="#e6e6e6"/>
    </linearGradient>
    <linearGradient id="linear-gradient-5" x1="30.52" y1="-31.07" x2="25.11" y2="-36.49" gradientTransform="translate(-18.42 -21) rotate(90)" xlink:href="#linear-gradient-4"/>
  </defs>
  <title>usp-features</title>
  <rect x="12" y="4" width="4" height="16" rx="1" ry="1" fill="url(#linear-gradient)"/>
  <rect x="2" y="2" width="13" height="20" rx="1" ry="1" fill="url(#linear-gradient-2)"/>
  <rect x="3" y="13" width="3" height="2" rx="0.5" ry="0.5" fill="#666"/>
  <rect x="3" y="3" width="11" height="8" fill="url(#linear-gradient-3)"/>
  <rect x="7" y="13" width="3" height="2" rx="0.5" ry="0.5" fill="#666"/>
  <rect x="11" y="13" width="3" height="2" rx="0.5" ry="0.5" fill="#666"/>
  <rect x="3" y="16" width="3" height="2" rx="0.5" ry="0.5" fill="#666"/>
  <rect x="7" y="16" width="3" height="2" rx="0.5" ry="0.5" fill="#666"/>
  <rect x="11" y="16" width="3" height="2" rx="0.5" ry="0.5" fill="#666"/>
  <rect x="3" y="19" width="3" height="2" rx="0.5" ry="0.5" fill="#666"/>
  <rect x="7" y="19" width="3" height="2" rx="0.5" ry="0.5" fill="#666"/>
  <rect x="11" y="19" width="3" height="2" rx="0.5" ry="0.5" fill="#009245"/>
  <rect x="12.25" y="3.75" width="6.5" height="10" rx="1" ry="1" transform="translate(24.25 -6.75) rotate(90)" fill="url(#linear-gradient-4)"/>
  <path d="M10.5,7.48V6.26a.77.77,0,0,1,.76-.76h8.47a.77.77,0,0,1,.76.76V7.39l-5,1.55Z" fill="url(#linear-gradient-5)"/>
</svg>
