<?xml version="1.0" encoding="utf-8"?>
<!-- Generator: Adobe Illustrator 21.1.0, SVG Export Plug-In . SVG Version: 6.00 Build 0)  -->
<svg version="1.1" id="Layer_1" xmlns="http://www.w3.org/2000/svg" xmlns:xlink="http://www.w3.org/1999/xlink" x="0px" y="0px"
	 viewBox="0 0 16 16" style="enable-background:new 0 0 16 16;" xml:space="preserve">
<style type="text/css">
	.st0{fill:url(#SVGID_1_);}
</style>
<linearGradient id="SVGID_1_" gradientUnits="userSpaceOnUse" x1="3.1273" y1="17.4637" x2="14.441" y2="6.15" gradientTransform="matrix(1 0 0 -1 0 18)">
	<stop  offset="0" style="stop-color:#FFB300"/>
	<stop  offset="1" style="stop-color:#FF7733"/>
</linearGradient>
<path class="st0" d="M15.3,1.7C12.9,0.7,10.4,0.1,8,0.1S2.9,0.7,0.8,1.7C0.1,2-0.1,2.3,0,3c0.2,2.1,1.1,4.8,2.2,6.8
	c1.6,2.9,4.3,5.2,5.2,5.8c0.5,0.3,0.8,0.4,1.3,0c1.2-0.8,3.1-2.7,4.2-4.2c-1.2,0.8-3.5,2-4.8,2.4c-1.6-1.1-3.2-3.1-3.9-4.3
	C3.2,8,2.3,6.1,1.9,3.2C3.3,2.7,5.4,2,8,2c2.1,0,4.1,0.4,6.1,1.2c0,0.2-0.1,0.4-0.1,0.6C13.5,6,12.2,8,10.2,9.2
	C9.7,9.5,9.1,9.8,8.5,10C8.2,9.7,7.9,9.3,7.6,8.9c0.9-0.2,2.1-0.8,3-1.7c0.7-0.7,1.2-1.4,1.5-2c0.3-0.6,0-1.2-0.7-1.4
	C10.4,3.5,9.1,3.4,8,3.4c-1.1,0-2.8,0.2-3.6,0.4C3.8,4,3.5,4.4,3.7,5.1C4,6.6,4.7,7.9,5.4,9c0.7,1.1,1.3,1.8,2.1,2.6
	c0.3,0.3,0.7,0.4,1.1,0.3c2.1-0.7,3.7-1.7,5.1-3.5c1.3-1.5,2.1-3.6,2.2-5.6C16,2.2,15.8,1.9,15.3,1.7z M8,5.2c0.7,0,1.3,0.1,1.9,0.2
	C9.5,5.9,8.9,6.3,8.3,6.6C7.8,6.9,7.2,7.1,6.5,7.2C6.2,6.8,6,6.1,5.7,5.4C6.3,5.3,7.3,5.2,8,5.2z"/>
</svg>
