<?xml version="1.0" encoding="utf-8"?>
<!-- Generator: Adobe Illustrator 21.1.0, SVG Export Plug-In . SVG Version: 6.00 Build 0)  -->
<svg version="1.1" id="Layer_1" xmlns="http://www.w3.org/2000/svg" xmlns:xlink="http://www.w3.org/1999/xlink" x="0px" y="0px"
	 viewBox="0 0 720 120" style="enable-background:new 0 0 720 120;" xml:space="preserve">
<style type="text/css">
	.st0{fill:url(#SVGID_1_);}
	.st1{fill:#282828;}
	.st2{fill:#FFB300;}
</style>
<linearGradient id="SVGID_1_" gradientUnits="userSpaceOnUse" x1="27.391" y1="113.901" x2="109.139" y2="32.153" gradientTransform="matrix(1 0 0 -1 0 120)">
	<stop  offset="0" style="stop-color:#FFB300"/>
	<stop  offset="1" style="stop-color:#FF7733"/>
</linearGradient>
<path class="st0" d="M115.3,14.8C97.7,7.2,80,3.3,62.7,3.3S25.9,7.5,10.3,14.6c-4.7,2.1-5.9,4.1-5.4,9.1C6.3,39.2,12.6,58.5,20.5,73
	c11.5,21.2,31.3,37.7,37.3,41.8c3.5,2.4,5.8,2.7,9.6,0.3c8.6-5.6,22.3-19.3,30.2-30.6c-8.8,5.6-25.1,14.2-34.9,17.5
	c-11.6-8.3-22.9-22.1-28.3-31.4c-6.2-10.7-13.1-24.4-15.8-45c9.7-4.1,25-8.9,44.1-8.9c15.1,0,29.9,3,44,8.9
	c-0.2,1.4-0.4,2.8-0.6,4.2c-3.4,16-13.5,30.2-27.5,38.8c-3.8,2.4-8,4.3-12.3,5.8c-2.2-2.3-4.6-5.1-6.8-8c6.6-1.8,15.5-5.8,22-12.1
	c5-4.9,8.7-9.8,10.9-14.7c2-4.6,0.1-8.6-4.9-9.9c-7.7-2-16.9-3-24.9-3c-7.6,0-20.5,1.8-25.7,3.2c-4.9,1.3-6.6,4.3-5.4,9.5
	c2.4,10.3,7.2,20.2,12.5,28.1c5.2,7.8,9.3,13,15.1,18.5c2.4,2.3,5,3,8.3,1.9c15.4-4.9,26.5-12.3,37.1-25
	c9.1-10.9,14.9-26.2,15.9-40.5C120.5,18.3,118.7,16.2,115.3,14.8z M62.7,39.9c4.7,0,9.3,0.5,13.4,1.1c-3,3.7-6.8,6.8-11,9.1
	c-4.1,2.3-8.5,3.7-13.2,4.3c-2-3.3-4.1-8.1-5.8-13C50.4,40.5,57.5,39.9,62.7,39.9z"/>
<g>
	<path class="st1" d="M165.7,88.5c-18.7,0-28.6-12-28.6-30.6c0-17.7,10.6-30.2,28.8-30.2c19.5,0,27.8,12.9,27.8,29.8V62h-39.3
		c0.8,10.4,4.6,14.9,11.9,14.9c6.8,0,9-3.3,10-6.8h16.8C191.4,81.3,181.4,88.5,165.7,88.5z M176.2,51.4c-0.5-8.2-3.8-13.1-10.3-13.1
		c-7,0-10.7,5-11.6,13.8h21.8v-0.7H176.2z"/>
	<path class="st1" d="M199.2,29.1h48.4v11.1l-28.9,34.1h29.5v12.6h-50V75.7l28.9-34.2h-27.9L199.2,29.1L199.2,29.1z"/>
	<path class="st1" d="M280.9,88.5c-18.7,0-28.6-12-28.6-30.6c0-17.7,10.6-30.2,28.8-30.2c19.5,0,27.8,12.9,27.8,29.8V62h-39.3
		c0.8,10.4,4.6,14.9,11.9,14.9c6.8,0,9-3.3,10-6.8h16.8C306.6,81.3,296.5,88.5,280.9,88.5z M291.3,51.4c-0.5-8.2-3.8-13.1-10.3-13.1
		c-7,0-10.7,5-11.6,13.8h21.8v-0.7H291.3z"/>
	<path class="st1" d="M336.6,12.7V29h13v11.9h-12.7v25.6c0,5.8,2.2,8.4,8,8.4c2.1,0,4.9-0.4,4.9-0.4V87c-2.3,0.2-6.6,0.6-11.4,0.6
		c-11.3,0-18.4-4.9-18.4-17.9V40.9h-8.5V29.2h1.9c7.3,0,8.6-1.5,8.6-12v-4.4h14.6V12.7z"/>
	<path class="st1" d="M356.6,46.2c0.6-11.6,9.8-18.5,24.9-18.5c18.7,0,25.2,7.7,25.2,23.1v20c0,3.1,1,4.3,4.6,4.3V87h-5.7
		c-8.3,0-12.3-1.6-14.1-8h-0.2c-3.7,5.4-9.3,8.5-17.5,8.5c-12.1,0-19.7-6.4-19.7-17.2c0-6.7,3-11.4,8.7-14.5
		c6.2-3.2,14.9-3.8,27.2-4.3v-3.1c0-6.4-2.7-9.7-8.5-9.7c-5.6,0-8.3,3.1-8.5,7.5C373,46.2,356.6,46.2,356.6,46.2z M390.1,62.5v-1.8
		c-9.1,0.5-13.6,1.3-16.3,3.1c-1.9,1.3-2.8,3.5-2.8,5.8c0,4.2,2.9,7.1,7.7,7.1C384.6,76.8,390.1,72.2,390.1,62.5z"/>
	<path class="st1" d="M418,29.1h16.5v9.4h0.2c2.7-5.2,8.9-10.7,18.3-10.7c13.4,0,23.2,8.6,23.2,30c0,19.3-9.8,30.6-24.8,30.6
		c-8.3,0-13.5-4.1-15.9-8.6h-0.3v27.5H418V29.1z M446.8,76.9c7.6,0,11.9-6.5,11.9-18.9c0-12.2-3.8-18.5-12-18.5
		c-6.8,0-11.8,5.7-11.8,15.3v6.3C435,70.2,438.9,76.9,446.8,76.9z"/>
</g>
<g>
	<path class="st2" d="M535.6,88.2c-10.5,0-20-4.4-20-17.9c0-6.7,3.1-11.9,8.9-14.9c6.2-3.4,12.6-3.9,27.2-4.4v-2.5
		c0-6.2-2.8-9.4-8.7-9.4c-5.6,0-8.6,3-8.8,7.4h-16.5c0.5-11.3,10-19,25-19c16.1,0,25.2,5.6,25.2,21.9v21.7c0,2.2,0.8,3,3,3h2.8v12.8
		H565c-6.2,0-10.3-0.8-11.8-6.8h-0.3C549.8,84.2,543.9,88.2,535.6,88.2z M539.8,76.5c6.5,0,12-5.6,12-14.5v-0.4
		c-9.1,0.5-13.5,0.7-16,2.3c-2.3,1.5-3.1,3.7-3.1,6C532.7,74.1,535.6,76.5,539.8,76.5z"/>
	<path class="st2" d="M585.4,28.8h16.8v9.4h0.3c2.5-5.5,8.6-10.7,17.8-10.7c13.2,0,23,8.7,23,30.2c0,19.4-9.8,30.7-24.6,30.7
		c-8.1,0-12.9-3.4-15.6-7.1h-0.4v26h-17.3V28.8z M614.1,76.8c7.6,0,11.5-6.5,11.5-19c0-12.3-3.6-18.6-11.5-18.6
		c-6.6,0-11.6,6.1-11.6,15.4V61C602.5,70.3,606.3,76.8,614.1,76.8z"/>
	<path class="st2" d="M655.3,86.9V73.7h19.6V41.9h-17.6V28.8H692v44.9h19.4v13.2C711.4,86.9,655.3,86.9,655.3,86.9z M674.4,3.9h18.2
		v17.6h-18.2V3.9z"/>
</g>
</svg>
