<?xml version="1.0" encoding="utf-8"?>
<!-- Generator: Adobe Illustrator 21.1.0, SVG Export Plug-In . SVG Version: 6.00 Build 0)  -->
<svg version="1.1"
	 id="svg3084" inkscape:version="0.48.0 r9654" sodipodi:docname="New document 2" xmlns:cc="http://creativecommons.org/ns#" xmlns:dc="http://purl.org/dc/elements/1.1/" xmlns:inkscape="http://www.inkscape.org/namespaces/inkscape" xmlns:rdf="http://www.w3.org/1999/02/22-rdf-syntax-ns#" xmlns:sodipodi="http://sodipodi.sourceforge.net/DTD/sodipodi-0.dtd" xmlns:svg="http://www.w3.org/2000/svg"
	 xmlns="http://www.w3.org/2000/svg" xmlns:xlink="http://www.w3.org/1999/xlink" x="0px" y="0px" viewBox="0 0 300 300"
	 style="enable-background:new 0 0 300 300;" xml:space="preserve">
<style type="text/css">
	.st0{fill:#FAB60F;}
	.st1{fill:#D52736;}
</style>
<g id="layer1" transform="translate(-99.947769,-406.89399)" inkscape:groupmode="layer" inkscape:label="Layer 1">
	<g id="g10" transform="matrix(0.90958305,0,0,0.90958305,-21.107609,121.24592)">
		<g id="g12">
			<path id="path14" inkscape:connector-curvature="0" class="st0" d="M438.2,456L438.2,456L438.2,456c-1.8,2.7-2.4,5.9-3,9.3
				c-0.7,4.1-1.4,8.1-2.8,12c-1.8,4.7-4.7,9.8-9.8,13.9c-5.3-14.4-13.1-27.6-22.7-39.2c6.1-2.4,12.1-2.4,17-1.6
				c4.1,0.7,7.9,2,11.8,3.5C431.9,455.1,435,456.2,438.2,456L438.2,456z"/>
			<path id="path16" inkscape:connector-curvature="0" class="st0" d="M378.8,396.6L378.8,396.6L378.8,396.6
				c-0.2,3.2,0.9,6.4,2.1,9.6c1.5,3.9,2.9,7.7,3.5,11.8c0.8,4.9,0.8,10.9-1.6,17c-11.6-9.7-24.8-17.4-39.3-22.7
				c4.1-5.2,9.3-8.1,13.9-9.9c3.9-1.5,7.8-2.2,12-2.8C372.9,399,376.1,398.4,378.8,396.6L378.8,396.6z"/>
			<path id="path18" inkscape:connector-curvature="0" class="st0" d="M428.9,514.5c6.5,1,11.6,4,15.4,7.1c3.2,2.6,5.8,5.7,8.4,8.9
				c2.2,2.7,4.3,5.1,7.2,6.6h-29.2C430.8,529.4,430.1,521.9,428.9,514.5z"/>
			<path id="path20" inkscape:connector-curvature="0" class="st0" d="M216.5,396.6L216.5,396.6L216.5,396.6c2.7,1.8,5.9,2.4,9.3,3
				c4.1,0.7,8.1,1.4,12,2.8c4.7,1.8,9.9,4.7,13.9,9.9c-14.4,5.3-27.7,13-39.3,22.7c-2.4-6.1-2.4-12.1-1.6-17c0.7-4.1,2-7.9,3.5-11.8
				C215.6,402.9,216.7,399.8,216.5,396.6z"/>
			<path id="path22" inkscape:connector-curvature="0" class="st0" d="M157.1,456L157.1,456L157.1,456c3.2,0.2,6.4-0.9,9.6-2.1
				c3.9-1.5,7.7-2.9,11.8-3.5c4.9-0.8,10.9-0.8,17,1.6c-9.7,11.6-17.4,24.8-22.7,39.2c-5.1-4.1-8.1-9.2-9.8-13.9
				c-1.5-3.9-2.2-7.8-2.8-12C159.5,461.9,158.8,458.7,157.1,456L157.1,456z"/>
			<path id="path24" inkscape:connector-curvature="0" class="st0" d="M135.3,537.2c2.9-1.4,5.1-3.9,7.2-6.6
				c2.6-3.2,5.2-6.3,8.4-8.9c3.8-3.2,9-6.2,15.4-7.1c-1.3,7.4-1.9,14.9-1.9,22.7H135.3L135.3,537.2z"/>
			<path id="path26" inkscape:connector-curvature="0" class="st0" d="M297.6,374.8L297.6,374.8L297.6,374.8
				c1.4,2.9,3.9,5.1,6.6,7.2c3.2,2.6,6.3,5.2,8.9,8.4c3.2,3.9,6.2,9,7.1,15.6c-7.4-1.3-14.9-1.9-22.7-1.9s-15.3,0.7-22.7,1.9
				c0.9-6.5,4-11.7,7.1-15.6c2.6-3.2,5.7-5.8,8.9-8.4C293.7,379.9,296.2,377.7,297.6,374.8L297.6,374.8z"/>
		</g>
		<g id="g28">
			<path id="path30" inkscape:connector-curvature="0" class="st1" d="M270.6,537.2l10,0c1.3-8.5-1.3-15-9.8-13.4
				c-7.2,1.3-15,8.5-19.6,13.4l13.2-0.1c1.5-1,4.4-2.1,5.5-1.2C270.3,536.2,270.5,536.6,270.6,537.2z"/>
			<path id="path32" inkscape:connector-curvature="0" class="st1" d="M315.6,537.2h12.5c0.6-14.8-1.8-30-8.6-43.2
				c-6.2-12-16.6-20.2-29.9-22.1c-19.5-2.9-39.2,5.4-55.8,17.2c-18.1,12.9-33.1,30.3-46.1,48.1l16.5,0
				c14.9-21.1,49.1-53.1,74.2-53.3c8-0.1,16.2,1.8,22.2,7.2c4.4,3.9,9.7,11.5,9.4,17.6c-0.2,3.6-3.4,4.8-6.5,3.6
				c-2.4-0.9-4.1-3.1-5.8-5.4c-5.5-7.5-14-11.2-23.4-9.9c-11.2,1.5-25,10.2-33.9,18.1c-7.7,6.8-14.8,14.2-21.4,22.1h17.8
				c6.5-7.9,13.4-14.6,22.2-20.1c2.8-1.7,6.2-3.6,9.9-4.8c9.1-3.1,18.2-2.3,22.2,9c1.6,4.5,1.8,8.4,1.4,15.6l0,0.3h12.1l0-0.4
				c0-3.9-0.1-6.6,0.3-10.5c0.3-3.4,1.3-6.8,4.5-7.3C315.8,517.7,315.5,532.4,315.6,537.2L315.6,537.2z"/>
			<path id="path34" inkscape:connector-curvature="0" class="st1" d="M341.3,537.2h12.6c0.6-13.7-0.6-29.9-5-44.1
				c-0.9-2.8-1.9-5.5-3-8.1c-2.7-6.1-6.3-11.7-10.6-16.8c-4.8-5.7-10.5-10.8-16.9-14.8c-1.9-1.2-3.9-2.3-5.9-3.3v0
				c-2-1-4.1-1.9-6.2-2.6l0,0c-24.5-8.7-49.4-2.5-70.2,8.8c-4.1,2.2-8,4.6-11.7,7.1c-3.7,2.5-7.3,5.2-10.6,7.9h0l0,0l0,0
				c-4,3.2-8.9,7.6-13.8,12.8c-1,1-1.9,2.1-2.8,3.1c-2.5,2.8-6.3,6.7-5.2,10.8c0.9,3.2,5.1,2.3,6.5,1.2c2.2-1.2,4.7-3.1,6.8-4.9
				c2.8-2.4,5.5-5,8.3-7.4c11.4-9.8,23.2-17.4,34.8-22.6c2.5-1.1,5.1-2.1,7.6-3c2.5-0.9,5-1.7,7.5-2.3l0,0
				c21.7-5.6,45.2-2,60.3,15.7C338.4,491.7,341,514.5,341.3,537.2L341.3,537.2z M184.9,517.9c1.4-1.3,2.7-2.9,4.2-4.7
				c2-2.6,2.2-5,1.4-6.8c-0.3-0.7-0.7-1.2-1.3-1.7c-0.5-0.4-1.1-0.8-1.8-0.9c-1.6-0.4-3.6,0.2-5.3,2.2c-1.9,2.3-4.5,6.2-5,9.7
				c-0.1,0.6-0.1,1.3-0.1,1.9c0.1,0.6,0.2,1.1,0.5,1.6l0,0l0,0c0.4,0.8,1.1,1.2,2.1,1.3c0.2,0,0.4,0,0.6,0c0.2,0,0.5-0.1,0.7-0.1
				l0,0l0,0C182.3,520,183.6,519.1,184.9,517.9z"/>
			<path id="path36" inkscape:connector-curvature="0" class="st1" d="M372.8,537.2L372.8,537.2l0.1,0c1.3,0.1,3.6-0.5,4.9-2.8
				c0.3-0.4,0.5-1,0.7-1.5c0.2-0.6,0.3-1.3,0.3-2h0l0-0.2l0,0c1-35-9.7-64-27.9-83.7c-3.5-3.8-7.4-7.3-11.4-10.4
				c-4.1-3.1-8.4-5.8-12.9-8.2l0,0l-0.1,0l0,0c-15.3-7.8-32.7-10.8-49.7-9.4c-3.3,0.3-6.6,0.7-9.9,1.3c-3.3,0.6-6.5,1.4-9.7,2.3l0,0
				c-17.5,5.2-33.8,15.5-47.1,29c-2.6,2.6-5.1,5.4-7.4,8.2c-1.2,1.4-2.3,2.9-3.4,4.3c9.3-8,19.3-15.1,29.8-20.7
				c2.4-1.3,4.7-2.4,7.1-3.5c2.4-1.1,4.8-2.1,7.2-3.1l0,0l0,0c9.2-3.6,18.3-5.9,27.4-6.9s18.2-0.8,27.5,0.7c6.6,1,13,2.8,18.8,5.2
				c1.1,0.5,2.2,1,3.3,1.5c1.1,0.5,2.1,1.1,3.1,1.6h0l0,0l0,0c20.4,11.2,34.5,34.1,40.8,59.9c1.2,5,2.1,10.2,2.7,15.4
				c0.6,5.2,0.9,10.4,0.9,15.7v0l0,0.3c0.1,2.8,1.1,5.1,2.7,6.2c0.3,0.2,0.6,0.3,1,0.4h0C372,537.1,372.4,537.2,372.8,537.2
				L372.8,537.2z"/>
			<path id="path38" inkscape:connector-curvature="0" class="st0" d="M336.3,420.5c49,16.2,84.4,62.3,84.6,116.7h-24.3
				C398.3,489.7,377.6,446.8,336.3,420.5L336.3,420.5z"/>
		</g>
	</g>
</g>
</svg>
