<?xml version="1.0" encoding="utf-8"?>
<!-- Generator: Adobe Illustrator 21.1.0, SVG Export Plug-In . SVG Version: 6.00 Build 0)  -->
<svg version="1.1" id="Layer_1" xmlns="http://www.w3.org/2000/svg" xmlns:xlink="http://www.w3.org/1999/xlink" x="0px" y="0px"
	 viewBox="0 0 1035.1 120" style="enable-background:new 0 0 1035.1 120;" xml:space="preserve">
<style type="text/css">
	.st0{fill:url(#SVGID_1_);}
	.st1{fill:#282828;}
	.st2{enable-background:new    ;}
</style>
<linearGradient id="SVGID_1_" gradientUnits="userSpaceOnUse" x1="27.391" y1="6.099" x2="109.139" y2="87.847">
	<stop  offset="0" style="stop-color:#FFB300"/>
	<stop  offset="1" style="stop-color:#FF7733"/>
</linearGradient>
<path class="st0" d="M115.3,14.8C97.7,7.2,80,3.3,62.7,3.3S25.9,7.5,10.3,14.6c-4.7,2.1-5.9,4.1-5.4,9.1C6.3,39.2,12.6,58.5,20.5,73
	c11.5,21.2,31.3,37.7,37.3,41.8c3.5,2.4,5.8,2.7,9.6,0.3c8.6-5.6,22.3-19.3,30.2-30.6c-8.8,5.6-25.1,14.2-34.9,17.5
	c-11.6-8.3-22.9-22.1-28.3-31.4c-6.2-10.7-13.1-24.4-15.8-45c9.7-4.1,25-8.9,44.1-8.9c15.1,0,29.9,3,44,8.9
	c-0.2,1.4-0.4,2.8-0.6,4.2c-3.4,16-13.5,30.2-27.5,38.8c-3.8,2.4-8,4.3-12.3,5.8c-2.2-2.3-4.6-5.1-6.8-8c6.6-1.8,15.5-5.8,22-12.1
	c5-4.9,8.7-9.8,10.9-14.7c2-4.6,0.1-8.6-4.9-9.9c-7.7-2-16.9-3-24.9-3c-7.6,0-20.5,1.8-25.7,3.2c-4.9,1.3-6.6,4.3-5.4,9.5
	c2.4,10.3,7.2,20.2,12.5,28.1c5.2,7.8,9.3,13,15.1,18.5c2.4,2.3,5,3,8.3,1.9c15.4-4.9,26.5-12.3,37.1-25
	c9.1-10.9,14.9-26.2,15.9-40.5C120.5,18.3,118.7,16.2,115.3,14.8z M62.7,39.9c4.7,0,9.3,0.5,13.4,1.1c-3,3.7-6.8,6.8-11,9.1
	c-4.1,2.3-8.5,3.7-13.2,4.3c-2-3.3-4.1-8.1-5.8-13C50.4,40.5,57.5,39.9,62.7,39.9z"/>
<g>
	<path class="st1" d="M165.7,88.5c-18.7,0-28.6-12-28.6-30.6c0-17.7,10.6-30.2,28.8-30.2c19.5,0,27.8,12.9,27.8,29.8V62h-39.3
		c0.8,10.4,4.6,14.9,11.9,14.9c6.8,0,9-3.3,10-6.8h16.8C191.4,81.3,181.4,88.5,165.7,88.5z M176.2,51.4c-0.5-8.2-3.8-13.1-10.3-13.1
		c-7,0-10.7,5-11.6,13.8h21.8v-0.7H176.2z"/>
	<path class="st1" d="M199.2,29.1h48.4v11.1l-28.9,34.1h29.5v12.6h-50V75.7l28.9-34.2h-27.9L199.2,29.1L199.2,29.1z"/>
	<path class="st1" d="M280.9,88.5c-18.7,0-28.6-12-28.6-30.6c0-17.7,10.6-30.2,28.8-30.2c19.5,0,27.8,12.9,27.8,29.8V62h-39.3
		c0.8,10.4,4.6,14.9,11.9,14.9c6.8,0,9-3.3,10-6.8h16.8C306.6,81.3,296.5,88.5,280.9,88.5z M291.3,51.4c-0.5-8.2-3.8-13.1-10.3-13.1
		c-7,0-10.7,5-11.6,13.8h21.8v-0.7H291.3z"/>
	<path class="st1" d="M336.6,12.7V29h13v11.9h-12.7v25.6c0,5.8,2.2,8.4,8,8.4c2.1,0,4.9-0.4,4.9-0.4V87c-2.3,0.2-6.6,0.6-11.4,0.6
		c-11.3,0-18.4-4.9-18.4-17.9V40.9h-8.5V29.2h1.9c7.3,0,8.6-1.5,8.6-12v-4.4h14.6V12.7z"/>
	<path class="st1" d="M356.6,46.2c0.6-11.6,9.8-18.5,24.9-18.5c18.7,0,25.2,7.7,25.2,23.1v20c0,3.1,1,4.3,4.6,4.3V87h-5.7
		c-8.3,0-12.3-1.6-14.1-8h-0.2c-3.7,5.4-9.3,8.5-17.5,8.5c-12.1,0-19.7-6.4-19.7-17.2c0-6.7,3-11.4,8.7-14.5
		c6.2-3.2,14.9-3.8,27.2-4.3v-3.1c0-6.4-2.7-9.7-8.5-9.7c-5.6,0-8.3,3.1-8.5,7.5C373,46.2,356.6,46.2,356.6,46.2z M390.1,62.5v-1.8
		c-9.1,0.5-13.6,1.3-16.3,3.1c-1.9,1.3-2.8,3.5-2.8,5.8c0,4.2,2.9,7.1,7.7,7.1C384.6,76.8,390.1,72.2,390.1,62.5z"/>
	<path class="st1" d="M418,29.1h16.5v9.4h0.2c2.7-5.2,8.9-10.7,18.3-10.7c13.4,0,23.2,8.6,23.2,30c0,19.3-9.8,30.6-24.8,30.6
		c-8.3,0-13.5-4.1-15.9-8.6h-0.3v27.5H418V29.1z M446.8,76.9c7.6,0,11.9-6.5,11.9-18.9c0-12.2-3.8-18.5-12-18.5
		c-6.8,0-11.8,5.7-11.8,15.3v6.3C435,70.2,438.9,76.9,446.8,76.9z"/>
</g>
<g class="st2">
	<path class="st1" d="M522.5,27.7h20.3c17.6,0,29.8,8.6,29.8,29s-12,30.5-29.5,30.5h-20.6V27.7z M542.1,77.5
		c10.3,0,16.9-5.1,16.9-20.5c0-14.7-6.7-19.8-16.5-19.8h-7.3v40.3H542.1z"/>
	<path class="st1" d="M580.4,27.7h39.2v9.7h-26.4v15.3h25v9.5h-25v15.3h27.1v9.6h-39.9V27.7z"/>
	<path class="st1" d="M624,27.7h13.4l12.2,38.5c1.8,5.8,2.1,8.9,2.1,8.9h0.2c0,0,0.3-3.1,2.1-8.8l12.4-38.6h12.3l-19.9,59.5H644
		L624,27.7z"/>
	<path class="st1" d="M712.6,66.8v20.4h-12.7V27.7h20.7c12.9,0,22.7,5.4,22.7,19.2c0,14.5-10.5,19.9-23.8,19.9H712.6z M720.3,57.3
		c6.6,0,10.4-3.4,10.4-10.3c0-7.3-3.8-10.2-10.3-10.2h-7.8v20.5H720.3z"/>
	<path class="st1" d="M775.8,26.8c17.4,0,28.1,11,28.1,30.8c0,19.6-11,30.8-28.1,30.8c-17.8,0-28.1-11-28.1-30.8
		C747.8,38,759.2,26.8,775.8,26.8z M790.1,57.6c0-14.2-5.9-21.6-14.3-21.6c-9,0-14.2,7.2-14.2,21.6c0,14.3,4.9,21.4,14.2,21.4
		C784.8,79,790.1,71.7,790.1,57.6z"/>
	<path class="st1" d="M833.7,64.5h-9.2v22.6h-12.7V27.7H835c3.8,0,8.2,0.5,12,2.2c5.6,2.5,9.9,7.1,9.9,15.3
		c0,9.4-5.9,14.1-11.5,16.3v0.2l13.3,25.5h-13.8L833.7,64.5z M833.4,55.4c5.6,0,10.4-2.5,10.4-9.6c0-7.2-5.5-9.3-10.2-9.3h-9.1v18.9
		H833.4z"/>
	<path class="st1" d="M908.6,37.7h-17.6v49.4h-12.7V37.7h-17.6v-10h47.9V37.7z"/>
	<path class="st1" d="M943,73.9h-21.8l-4.4,13.2h-12.2l20.7-59.5h14.3l21.1,59.5h-13.4L943,73.9z M929.7,47.2l-5.5,17.3h15.7
		l-5.4-17.3c-1.6-5.2-2.3-8.7-2.3-8.7H932C931.9,38.9,931.2,42.4,929.7,47.2z"/>
	<path class="st1" d="M966.2,27.7H979v49.5h25.6v9.9h-38.4V27.7z"/>
</g>
</svg>
