<?xml version="1.0" encoding="utf-8"?>
<!-- Generator: Adobe Illustrator 21.1.0, SVG Export Plug-In . SVG Version: 6.00 Build 0)  -->
<svg version="1.1" id="Layer_1" xmlns="http://www.w3.org/2000/svg" xmlns:xlink="http://www.w3.org/1999/xlink" x="0px" y="0px"
	 viewBox="0 0 1661 1686.3" style="enable-background:new 0 0 1661 1686.3;" xml:space="preserve">
<style type="text/css">
	.st0{fill:#29CEE2;}
	.st1{fill:#00A5BC;}
	.st2{fill:#455A64;}
	.st3{fill:#43A047;}
	.st4{opacity:0.5;enable-background:new    ;}
	.st5{fill:#00FFFF;}
	.st6{fill:#DD4900;}
	.st7{fill:#C7B299;}
	.st8{fill:none;stroke:#F2F2F2;stroke-width:4;stroke-linecap:round;stroke-miterlimit:10;}
	.st9{opacity:0.3;fill:none;stroke:#000000;stroke-width:3;stroke-miterlimit:10;enable-background:new    ;}
	.st10{fill:#F9CE1D;}
	.st11{fill:#FFEB3B;}
	.st12{fill:#263238;}
	.st13{fill:none;stroke:#DD4900;stroke-width:3;stroke-miterlimit:10;}
	.st14{fill:#666666;}
	.st15{fill:#E6E6E6;}
	.st16{fill:none;stroke:#4D4D4D;stroke-width:2;stroke-linecap:round;stroke-miterlimit:10;}
	.st17{fill:none;stroke:#4D4D4D;stroke-width:2.3589;stroke-linecap:round;stroke-miterlimit:10;}
	.st18{fill:none;stroke:#ED1C24;stroke-width:2.3589;stroke-linecap:round;stroke-miterlimit:10;}
	.st19{fill:#ED1C24;}
	.st20{fill:#546E7A;}
	.st21{fill:#78909C;}
	.st22{opacity:0.3;enable-background:new    ;}
	.st23{fill:none;stroke:#B3B3B3;stroke-width:40;stroke-linecap:round;stroke-miterlimit:10;}
	.st24{fill:none;stroke:#CCCCCC;stroke-width:40;stroke-linecap:round;stroke-miterlimit:10;}
	.st25{fill:#29ABE2;}
	.st26{fill:#81D4FA;}
	.st27{fill:none;stroke:#90A4AE;stroke-width:80;stroke-miterlimit:10;}
	.st28{fill:#B3B3B3;}
	.st29{fill:#333333;}
	.st30{fill:#808080;}
	.st31{fill:#66BB6A;}
	.st32{opacity:0.4;fill:#231F20;enable-background:new    ;}
	.st33{fill:#CCCCCC;}
	.st34{fill:#EE6F0B;}
	.st35{fill:#FBB03B;}
	.st36{fill:#1A1A1A;}
	.st37{opacity:0.2;}
	.st38{fill:none;stroke:#333333;stroke-width:3;stroke-miterlimit:10;}
	.st39{fill:#F2F2F2;}
</style>
<polygon class="st0" points="434.9,1686.3 434.9,539.8 1300.3,539.8 1388.7,941 1661.3,1043.1 1661.3,1686.3 "/>
<polygon class="st1" points="211,1686.3 211,539.8 488.3,539.8 576.8,941 849.3,1043.1 849.3,1686.3 "/>
<g>
	<polygon class="st2" points="1344.8,892.1 874.4,892.1 804.9,574.8 1275.2,574.8 	"/>
	<polygon class="st3" points="1120.8,611 836.6,611 834.5,601.2 1118.6,601.2 	"/>
	<polygon class="st3" points="1072.3,638.8 842.7,638.8 840.6,629 1070.1,629 	"/>
	<polygon class="st3" points="1103.6,666.6 848.8,666.6 846.7,656.9 1101.4,656.9 	"/>
	<polygon class="st3" points="1042.5,694.5 854.9,694.5 852.8,684.7 1040.3,684.7 	"/>
	<polygon class="st3" points="964.6,722.3 861,722.3 858.9,712.6 962.4,712.6 	"/>
	<polygon class="st3" points="1151.3,750.1 867.1,750.1 864.9,740.4 1149.1,740.4 	"/>
	<polygon class="st3" points="1102.8,778 873.2,778 871,768.2 1100.6,768.2 	"/>
	<polygon class="st3" points="1134.1,805.8 879.3,805.8 877.1,796.1 1131.9,796.1 	"/>
	<polygon class="st3" points="1073,833.6 885.4,833.6 883.2,823.9 1070.8,823.9 	"/>
	<polygon class="st3" points="995.1,861.5 891.5,861.5 889.3,851.7 992.9,851.7 	"/>
	<polygon class="st3" points="1244,611 1175.4,611 1173.2,601.2 1241.8,601.2 	"/>
	<polygon class="st3" points="1236.9,638.8 1181.5,638.8 1179.3,629 1234.7,629 	"/>
	<polygon class="st3" points="1249.1,666.6 1187.6,666.6 1185.4,656.9 1246.9,656.9 	"/>
	<polygon class="st3" points="1238.9,694.5 1193.7,694.5 1191.5,684.7 1236.8,684.7 	"/>
	<polygon class="st3" points="1224.8,722.3 1199.8,722.3 1197.6,712.6 1222.6,712.6 	"/>
</g>
<circle class="st4" cx="231.8" cy="561" r="7"/>
<circle class="st4" cx="471.2" cy="561" r="7"/>
<circle class="st4" cx="231.8" cy="1647.3" r="7"/>
<circle class="st4" cx="818.3" cy="1647.3" r="7"/>
<circle class="st4" cx="875.7" cy="1647.3" r="7"/>
<polygon class="st5" points="576.7,941.5 1388.6,941.5 1661.6,1043.7 849.7,1043.7 "/>
<circle class="st4" cx="875.7" cy="1076.1" r="7"/>
<circle class="st6" cx="943.4" cy="1141.2" r="31.7"/>
<circle class="st7" cx="951.8" cy="1141.2" r="31.7"/>
<line class="st8" x1="964.5" y1="1131.6" x2="973.2" y2="1122.8"/>
<circle class="st6" cx="1041.4" cy="1141.2" r="31.7"/>
<ellipse transform="matrix(0.2808 -0.9598 0.9598 0.2808 -340.2652 1828.3733)" class="st7" cx="1049.8" cy="1141.2" rx="31.7" ry="31.7"/>
<line class="st8" x1="1055.5" y1="1156.1" x2="1061.5" y2="1167"/>
<path class="st9" d="M434.3,869.8H272.5c-0.6,0-1-0.4-1-1V623c0-0.6,0.4-1,1-1h161.8c0.5,0,1,0.4,1,1v245.8
	C435.3,869.4,434.8,869.8,434.3,869.8z"/>
<circle class="st4" cx="284.3" cy="635.9" r="3.5"/>
<circle class="st4" cx="421.5" cy="635.9" r="3.5"/>
<circle class="st4" cx="284.3" cy="852.8" r="3.5"/>
<circle class="st4" cx="421.5" cy="852.8" r="3.5"/>
<polygon class="st10" points="656.5,954.1 840.6,954.1 888.4,972.3 704.3,972.3 "/>
<polygon class="st11" points="715.3,975.1 899.4,975.1 947.2,993.3 763.1,993.3 "/>
<polygon class="st12" points="1344.8,892.1 1333.6,892.1 1264,574.8 1275.2,574.8 "/>
<path class="st13" d="M1187.4,1519.4H913.7c-0.6,0-1-0.4-1-1v-161.8c0-0.6,0.4-1,1-1h273.8c0.6,0,1,0.4,1,1v161.8
	C1188.4,1518.9,1188,1519.4,1187.4,1519.4z"/>
<circle class="st6" cx="925.4" cy="1369.4" r="3.5"/>
<circle class="st6" cx="1171.8" cy="1369.4" r="3.5"/>
<circle class="st6" cx="925.4" cy="1506.6" r="3.5"/>
<circle class="st6" cx="1171.8" cy="1506.6" r="3.5"/>
<line class="st13" x1="950.2" y1="1390.2" x2="1069.2" y2="1390.2"/>
<line class="st13" x1="950.2" y1="1404.2" x2="1069.2" y2="1404.2"/>
<line class="st13" x1="950.2" y1="1418.2" x2="1069.2" y2="1418.2"/>
<line class="st13" x1="950.2" y1="1432.2" x2="1069.2" y2="1432.2"/>
<path class="st14" d="M850,892.6c-5.4-29.4-36.3-57.3-68.1-57.3s-52.5,27.9-47.1,57.3H850z"/>
<path class="st14" d="M710,892.6c-5.4-29.4-36.3-57.3-68.1-57.3s-52.5,27.9-47.1,57.3H710z"/>
<g>
	<path class="st15" d="M843,892.6c-5.4-29.4-36.3-57.3-68.1-57.3s-52.5,27.9-47.1,57.3H843z"/>
	<line class="st16" x1="775.9" y1="841.1" x2="777.4" y2="849.2"/>
	<line class="st17" x1="762.8" y1="842.7" x2="766.6" y2="850.9"/>
	<line class="st17" x1="751.3" y1="847.8" x2="757.1" y2="855.1"/>
	<line class="st17" x1="742.2" y1="855.8" x2="749.5" y2="861.8"/>
	<line class="st17" x1="736" y1="866.2" x2="744.4" y2="870.4"/>
	<line class="st17" x1="733.1" y1="878.2" x2="742" y2="880.4"/>
	<line class="st16" x1="733.1" y1="891.2" x2="742.9" y2="891.2"/>
	<line class="st16" x1="836.7" y1="889.8" x2="828.3" y2="889.8"/>
	<line class="st17" x1="832.9" y1="877.2" x2="824.8" y2="879.3"/>
	<line class="st17" x1="825.4" y1="865.2" x2="818.6" y2="869.5"/>
	<line class="st17" x1="815.2" y1="855.1" x2="810.1" y2="861"/>
	<line class="st17" x1="803" y1="847.3" x2="799.9" y2="854.6"/>
	<line class="st17" x1="789.6" y1="842.5" x2="788.8" y2="850.6"/>
	<line class="st18" x1="804.6" y1="852.5" x2="784.2" y2="887.4"/>
	<path class="st19" d="M788.9,887.2c0.5,2.6-1.3,4.7-4.1,4.7s-5.3-2.1-5.8-4.7s1.3-4.7,4.1-4.7S788.5,884.5,788.9,887.2z"/>
	<path class="st15" d="M703.6,892.6c-5.4-29.4-36.3-57.3-68.1-57.3s-52.5,27.9-47.1,57.3H703.6z"/>
	<line class="st16" x1="635.9" y1="841.1" x2="637.4" y2="849.2"/>
	<line class="st17" x1="623.4" y1="842.7" x2="627.1" y2="850.9"/>
	<line class="st17" x1="611.9" y1="847.8" x2="617.6" y2="855.1"/>
	<line class="st17" x1="602.7" y1="855.8" x2="610" y2="861.8"/>
	<line class="st17" x1="596.5" y1="866.2" x2="604.9" y2="870.4"/>
	<line class="st17" x1="593.7" y1="878.2" x2="602.6" y2="880.4"/>
	<line class="st16" x1="594.5" y1="891.2" x2="602.9" y2="891.2"/>
	<line class="st16" x1="698.1" y1="889.8" x2="688.3" y2="889.8"/>
	<line class="st17" x1="693.4" y1="877.2" x2="685.3" y2="879.3"/>
	<line class="st17" x1="685.9" y1="865.2" x2="679.1" y2="869.5"/>
	<line class="st17" x1="675.7" y1="855.1" x2="670.6" y2="861"/>
	<line class="st17" x1="663.5" y1="847.3" x2="660.4" y2="854.6"/>
	<line class="st17" x1="650.1" y1="842.5" x2="649.3" y2="850.6"/>
	<line class="st18" x1="604.6" y1="860.9" x2="645.1" y2="887.4"/>
	<path class="st19" d="M649.4,887.2c0.5,2.6-1.3,4.7-4.1,4.7c-2.7,0-5.3-2.1-5.8-4.7s1.3-4.7,4.1-4.7
		C646.4,882.4,649,884.5,649.4,887.2z"/>
</g>
<g>
	<polygon class="st20" points="840.3,959 840.3,954.1 888.4,972.3 875.9,972.3 	"/>
	<polygon class="st21" points="669.1,959 840.3,959 840.3,954.1 656.5,954.1 	"/>
</g>
<g>
	<polygon class="st20" points="899.1,980 899.1,975.1 947.2,993.3 934.7,993.3 	"/>
	<polygon class="st21" points="727.9,980 899.1,980 899.1,975.1 715.3,975.1 	"/>
</g>
<circle class="st22" cx="345.7" cy="694.7" r="40.1"/>
<path class="st23" d="M19.7-3.7v629c0,38.1,30.9,68.9,68.9,68.9h257.2"/>
<circle class="st22" cx="345.7" cy="796.9" r="40.1"/>
<path class="st24" d="M131.7,0v727.5c0,38.1,30.9,68.9,68.9,68.9h145.2"/>
<path class="st6" d="M95.1,366.7v-41.6c0-3.6,2.9-6.5,6.5-6.5h59.8c3.6,0,6.5,2.9,6.5,6.5v41.6c0,3.6-2.9,6.5-6.5,6.5h-59.8
	C98,373.2,95.1,370.3,95.1,366.7z"/>
<path class="st25" d="M605,607.9c4.2,17.5-6.7,31.7-24.2,31.7s-35.1-14.2-39.2-31.7c-4.2-17.5,6.7-31.7,24.2-31.7
	C583.3,576.2,600.8,590.4,605,607.9z"/>
<path class="st26" d="M549.5,605.3c-2.7-17.4,9.5-30.4,27.3-29s34.4,16.7,37.1,34.2c2.7,17.4-9.5,30.4-27.3,29
	C568.8,638,552.2,622.7,549.5,605.3z"/>
<line class="st8" x1="570.4" y1="616.4" x2="562.8" y2="624.5"/>
<path class="st25" d="M711.4,609.3c4.2,17.5-6.7,31.7-24.2,31.7s-35.1-14.2-39.2-31.7s6.7-31.7,24.2-31.7S707.2,591.8,711.4,609.3z"
	/>
<path class="st26" d="M661.4,585.6c10.3-11.7,30.6-10.5,45.4,2.5c14.8,13.1,18.4,33.1,8.1,44.8c-10.3,11.7-30.6,10.5-45.4-2.5
	C654.7,617.3,651.1,597.3,661.4,585.6z"/>
<line class="st8" x1="671.8" y1="606.2" x2="659.2" y2="605.5"/>
<path class="st27" d="M109.1,1675.1v-687c0-38.1,30.9-68.9,68.9-68.9h33.2"/>
<rect x="1046.7" y="481" class="st28" width="12.6" height="58.8"/>
<rect x="1034.8" y="387.4" class="st29" width="38.5" height="33.3"/>
<polygon class="st30" points="650.9,539.8 511.6,539.8 525.6,518.1 636.9,518.1 "/>
<path class="st31" d="M541.2,518.1v-44c0-22,18-40,40-40l0,0c22,0,40,18,40,40v44"/>
<polygon class="st30" points="804.9,539.8 665.6,539.8 679.6,518.1 790.9,518.1 "/>
<path class="st19" d="M695.2,518.1v-44c0-22,18-40,40-40l0,0c22,0,40,18,40,40v44"/>
<path class="st32" d="M585.4,518c-2.6-6.8-3.4-20.8-2.5-30.8c0,0,0,0-0.1,0c-1.1,0.2-2.1,0.4-3.1,0.5c0.9,9.5-0.7,22.6-2.9,30.2
	h-2.6c2.4-8.6,3.6-21.7,2.8-30.1c-5.3,0-8.7-2-9.5-4.5c-0.3-0.9-0.8-4,4.4-6.3c1.6-0.7,3.2-0.5,4.5,0.6c1.5,1.3,2.4,3.9,2.9,7.3
	c0.9-0.1,1.8-0.3,2.9-0.5c0.3-0.1,0.7-0.2,1-0.2c0.5-3.4,1.2-6,2.2-7c0.7-0.7,1.6-0.9,2.5-0.5c3.9,1.7,4.6,3.5,4.5,4.8
	c-0.2,2-2.3,3.6-6.8,4.9c-0.9,8.9-0.4,24.2,2.4,31.4h-2.6V518z M573.7,479.6c-0.2,0-0.5,0.1-0.8,0.2c-2.1,0.9-3.2,2-2.9,2.9
	c0.3,1.1,2.6,2.5,6.6,2.6c-0.4-2.6-1.1-4.5-2.1-5.3C574.4,479.7,574.1,479.6,573.7,479.6z M587.2,479.6c-0.5,0.6-0.9,2-1.2,4
	c3.5-1.2,3.7-2.1,3.7-2.1C589.7,481.2,589.1,480.4,587.2,479.6z"/>
<path class="st32" d="M729.7,518c2.6-6.8,3.4-20.8,2.5-30.8c0,0,0,0,0.1,0c1.1,0.2,2.1,0.4,3.1,0.5c-0.9,9.5,0.7,22.6,2.9,30.2h2.6
	c-2.4-8.6-3.6-21.7-2.8-30.1c5.3,0,8.7-2,9.5-4.5c0.3-0.9,0.8-4-4.4-6.3c-1.6-0.7-3.2-0.5-4.5,0.6c-1.5,1.3-2.4,3.9-2.9,7.3
	c-0.9-0.1-1.8-0.3-2.9-0.5c-0.3-0.1-0.7-0.2-1-0.2c-0.5-3.4-1.2-6-2.2-7c-0.7-0.7-1.6-0.9-2.5-0.5c-3.9,1.7-4.6,3.5-4.5,4.8
	c0.2,2,2.3,3.6,6.8,4.9c0.9,8.9,0.4,24.2-2.4,31.4h2.6V518z M741.3,479.6c0.2,0,0.5,0.1,0.8,0.2c2.1,0.9,3.2,2,2.9,2.9
	c-0.3,1.1-2.6,2.5-6.6,2.6c0.4-2.6,1.1-4.5,2.1-5.3C740.7,479.7,740.9,479.6,741.3,479.6z M727.9,479.6c0.5,0.6,0.9,2,1.2,4
	c-3.5-1.2-3.7-2.1-3.7-2.1C725.4,481.2,726,480.4,727.9,479.6z"/>
<path class="st33" d="M1051.9,411c0-9.8,7.5-18,17.5-18c2,0,3.9,0.4,5.3,1v-19.4h-43.4V509h43.4v-98L1051.9,411L1051.9,411z"/>
<polygon class="st28" points="1021.8,374.6 1086.2,374.6 1053.3,341.7 "/>
<polygon class="st30" points="192.8,1686 25.5,1686 39.5,1664.3 178.8,1664.3 "/>
<circle class="st4" cx="1630.3" cy="1647.3" r="7"/>
<circle class="st4" cx="1630.3" cy="1076.1" r="7"/>
<g>
	<g>
		<polygon class="st20" points="1308,967.5 1308,972.3 1261.9,954.7 1261.9,950.2 		"/>
		<rect x="1308" y="967.5" class="st21" width="54.3" height="4.7"/>
	</g>
	<g>
		<polygon class="st20" points="1372.8,967.5 1372.8,972.3 1326.7,954.7 1326.7,950.2 		"/>
		<rect x="1372.8" y="967.5" class="st21" width="54.3" height="4.7"/>
	</g>
	<g>
		<polygon class="st20" points="1243.1,967.5 1243.1,972.3 1197,954.7 1197,950.2 		"/>
		<rect x="1243.1" y="967.5" class="st21" width="54.3" height="4.7"/>
	</g>
	<g>
		<polygon class="st20" points="1363.1,988.2 1363.1,993 1317.1,975.4 1317.1,970.9 		"/>
		<rect x="1363.1" y="988.2" class="st21" width="54.3" height="4.7"/>
	</g>
	<g>
		<polygon class="st20" points="1428,988.2 1428,993 1381.9,975.4 1381.9,970.9 		"/>
		<rect x="1428" y="988.2" class="st21" width="54.3" height="4.7"/>
	</g>
	<g>
		<polygon class="st20" points="1298.3,988.2 1298.3,993 1252.2,975.4 1252.2,970.9 		"/>
		<rect x="1298.3" y="988.2" class="st21" width="54.3" height="4.7"/>
	</g>
	<polygon class="st11" points="1297.7,967.4 1243.4,967.4 1197.3,950.1 1251.6,950.1 	"/>
	<polygon class="st34" points="1362.6,967.4 1308.3,967.4 1262.3,950.1 1316.5,950.1 	"/>
	<polygon class="st11" points="1427.5,967.4 1373.2,967.4 1327.2,950.1 1381.5,950.1 	"/>
	<polygon class="st34" points="1352.8,988.1 1298.5,988.1 1252.4,970.8 1306.7,970.8 	"/>
	<polygon class="st10" points="1417.7,988.1 1363.4,988.1 1317.3,970.8 1371.6,970.8 	"/>
	<g>
		<polygon class="st20" points="1418.3,1008.9 1418.3,1013.7 1372.3,996.1 1372.3,991.6 		"/>
		<rect x="1418.3" y="1008.9" class="st21" width="54.3" height="4.7"/>
	</g>
	<g>
		<polygon class="st20" points="1483.2,1008.9 1483.2,1013.7 1437.1,996.1 1437.1,991.6 		"/>
		<rect x="1483.2" y="1008.9" class="st21" width="54.3" height="4.7"/>
	</g>
	<g>
		<polygon class="st20" points="1353.5,1008.9 1353.5,1013.7 1307.4,996.1 1307.4,991.6 		"/>
		<rect x="1353.5" y="1008.9" class="st21" width="54.3" height="4.7"/>
	</g>
	<polygon class="st35" points="1482.6,988.1 1428.3,988.1 1382.3,970.8 1436.6,970.8 	"/>
	<g>
		<polygon class="st20" points="1473.5,1029.6 1473.5,1034.4 1427.4,1016.8 1427.4,1012.3 		"/>
		<rect x="1473.5" y="1029.6" class="st21" width="54.3" height="4.7"/>
	</g>
	<polygon class="st35" points="1407.9,1008.9 1353.6,1008.9 1307.5,991.5 1361.8,991.5 	"/>
	<polygon class="st34" points="1472.8,1008.9 1418.5,1008.9 1372.4,991.5 1426.7,991.5 	"/>
	<polygon class="st11" points="1537.7,1008.9 1483.4,1008.9 1437.4,991.5 1491.7,991.5 	"/>
	<g>
		<polygon class="st20" points="1538.4,1029.6 1538.4,1034.4 1492.3,1016.8 1492.3,1012.3 		"/>
		<rect x="1538.4" y="1029.6" class="st21" width="54.3" height="4.7"/>
	</g>
	<polygon class="st10" points="1463,1029.7 1408.7,1029.7 1362.6,1014.3 1416.9,1014.3 	"/>
	<polygon class="st35" points="1527.9,1029.6 1473.6,1029.6 1427.5,1012.3 1481.8,1012.3 	"/>
	<polygon class="st11" points="1592.8,1029.6 1538.5,1029.6 1492.5,1012.3 1546.7,1012.3 	"/>
	<g>
		<polygon class="st20" points="1408.7,1029.6 1408.7,1034.4 1362.6,1016.8 1362.6,1012.3 		"/>
		<rect x="1408.7" y="1029.6" class="st21" width="54.3" height="4.7"/>
	</g>
	<g>
		<polygon class="st20" points="1113.4,967.5 1113.4,972.3 1067.3,954.7 1067.3,950.2 		"/>
		<rect x="1113.4" y="967.5" class="st21" width="54.3" height="4.7"/>
	</g>
	<g>
		<polygon class="st20" points="1178.3,967.5 1178.3,972.3 1132.2,954.7 1132.2,950.2 		"/>
		<rect x="1178.3" y="967.5" class="st21" width="54.3" height="4.7"/>
	</g>
	<g>
		<polygon class="st20" points="1048.6,967.5 1048.6,972.3 1002.5,954.7 1002.5,950.2 		"/>
		<rect x="1048.6" y="967.5" class="st21" width="54.3" height="4.7"/>
	</g>
	<g>
		<polygon class="st20" points="1168.6,988.2 1168.6,993 1122.5,975.4 1122.5,970.9 		"/>
		<rect x="1168.6" y="988.2" class="st21" width="54.3" height="4.7"/>
	</g>
	<g>
		<polygon class="st20" points="1233.4,988.2 1233.4,993 1187.4,975.4 1187.4,970.9 		"/>
		<rect x="1233.4" y="988.2" class="st21" width="54.3" height="4.7"/>
	</g>
	<g>
		<polygon class="st20" points="1103.8,988.2 1103.8,993 1057.7,975.4 1057.7,970.9 		"/>
		<rect x="1103.8" y="988.2" class="st21" width="54.3" height="4.7"/>
	</g>
	<polygon class="st11" points="1103.1,967.4 1048.9,967.4 1002.8,950.1 1057.1,950.1 	"/>
	<polygon class="st34" points="1168.1,967.4 1113.8,967.4 1067.7,950.1 1122,950.1 	"/>
	<polygon class="st11" points="1233,967.4 1178.7,967.4 1132.6,950.1 1186.9,950.1 	"/>
	<polygon class="st34" points="1158.2,988.1 1103.9,988.1 1057.9,970.8 1112.2,970.8 	"/>
	<polygon class="st10" points="1223.2,988.1 1168.9,988.1 1122.8,970.8 1177.1,970.8 	"/>
	<g>
		<polygon class="st20" points="1223.8,1008.9 1223.8,1013.7 1177.7,996.1 1177.7,991.6 		"/>
		<rect x="1223.8" y="1008.9" class="st21" width="54.3" height="4.7"/>
	</g>
	<g>
		<polygon class="st20" points="1288.6,1008.9 1288.6,1013.7 1242.6,996.1 1242.6,991.6 		"/>
		<rect x="1288.6" y="1008.9" class="st21" width="54.3" height="4.7"/>
	</g>
	<g>
		<polygon class="st20" points="1158.9,1008.9 1158.9,1013.7 1112.9,996.1 1112.9,991.6 		"/>
		<rect x="1158.9" y="1008.9" class="st21" width="54.3" height="4.7"/>
	</g>
	<polygon class="st35" points="1288.1,988.1 1233.8,988.1 1187.7,970.8 1242,970.8 	"/>
	<g>
		<polygon class="st20" points="1279,1029.6 1279,1034.4 1232.9,1016.8 1232.9,1012.3 		"/>
		<rect x="1279" y="1029.6" class="st21" width="54.3" height="4.7"/>
	</g>
	<polygon class="st35" points="1213.3,1008.9 1159,1008.9 1113,991.5 1167.3,991.5 	"/>
	<polygon class="st34" points="1278.2,1008.9 1224,1008.9 1177.9,991.5 1232.2,991.5 	"/>
	<polygon class="st11" points="1343.2,1008.9 1288.9,1008.9 1242.8,991.5 1297.1,991.5 	"/>
	<g>
		<polygon class="st20" points="1343.8,1029.6 1343.8,1034.4 1297.8,1016.8 1297.8,1012.3 		"/>
		<rect x="1343.8" y="1029.6" class="st21" width="54.3" height="4.7"/>
	</g>
	<polygon class="st10" points="1268.4,1029.7 1214.1,1029.7 1168.1,1014.3 1222.4,1014.3 	"/>
	<polygon class="st35" points="1333.3,1029.6 1279.1,1029.6 1233,1012.3 1287.3,1012.3 	"/>
	<polygon class="st11" points="1398.3,1029.6 1344,1029.6 1297.9,1012.3 1352.2,1012.3 	"/>
	<g>
		<polygon class="st20" points="1214.1,1029.6 1214.1,1034.4 1168.1,1016.8 1168.1,1012.3 		"/>
		<rect x="1214.1" y="1029.6" class="st21" width="54.3" height="4.7"/>
	</g>
</g>
<path class="st29" d="M1457,1156.1h-205.6c-0.5,0-1-0.4-1-1v-30.5c0-0.5,0.5-1,1-1H1457c0.6,0,1,0.5,1,1v30.5
	C1458,1155.6,1457.6,1156.1,1457,1156.1z"/>
<path class="st36" d="M1457,1156.1h-4.4v-32.5h4.4c0.6,0,1,0.5,1,1v30.5C1458,1155.6,1457.6,1156.1,1457,1156.1z"/>
<g>
	<path class="st15" d="M1267.7,1141.7L1267.7,1141.7C1267.8,1141.7,1267.7,1141.7,1267.7,1141.7z"/>
	<path class="st15" d="M1459.7,1280.3v-5.6v-86.2c0-47.5-32-46.8-32-46.8h-159.8c2,0,30.8,1,30.8,46.8v86.2v5.6
		c0,47.5,32.4,47.6,32.4,47.6H1491C1491,1327.9,1459.7,1327.8,1459.7,1280.3z"/>
</g>
<g class="st37">
	<line class="st38" x1="1316.9" y1="1232" x2="1445.7" y2="1232"/>
	<g>
		<line class="st38" x1="1316.9" y1="1190" x2="1445.7" y2="1190"/>
		<line class="st38" x1="1316.9" y1="1204" x2="1445.7" y2="1204"/>
		<line class="st38" x1="1316.9" y1="1218" x2="1445.7" y2="1218"/>
		<line class="st38" x1="1316.9" y1="1246" x2="1445.7" y2="1246"/>
		<line class="st38" x1="1316.9" y1="1274" x2="1445.7" y2="1274"/>
		<line class="st38" x1="1316.9" y1="1288" x2="1445.7" y2="1288"/>
		<line class="st38" x1="1325.3" y1="1302" x2="1454.1" y2="1302"/>
		<line class="st38" x1="1316.9" y1="1260" x2="1445.7" y2="1260"/>
		<line class="st38" x1="1336.5" y1="1316" x2="1465.3" y2="1316"/>
		<line class="st38" x1="1316.9" y1="1176" x2="1445.7" y2="1176"/>
		<line class="st38" x1="1311.3" y1="1162" x2="1440.1" y2="1162"/>
		<line class="st38" x1="1300.1" y1="1148" x2="1428.9" y2="1148"/>
	</g>
</g>
<path class="st33" d="M1397.6,1227.1c0,0-33.1-0.6-33.1,46.9v6.3c0,47.5-31.8,47.6-31.8,47.6h159.9c0,0,32.9-0.1,32.9-47.6v-6.3
	c0-47.5,32-46.9,32-46.9H1397.6z"/>
<path class="st39" d="M1585.7,1456.7h-161V1274c0-47.5-30.3-46.9-30.3-46.9h159.9c0,0,31.4-0.6,31.4,46.9V1456.7z"/>
<g class="st37">
	<line class="st38" x1="1442.9" y1="1324.4" x2="1571.7" y2="1324.4"/>
	<line class="st38" x1="1442.9" y1="1282.4" x2="1571.7" y2="1282.4"/>
	<line class="st38" x1="1442.9" y1="1296.4" x2="1571.7" y2="1296.4"/>
	<line class="st38" x1="1442.9" y1="1310.4" x2="1571.7" y2="1310.4"/>
	<line class="st38" x1="1442.9" y1="1338.4" x2="1571.7" y2="1338.4"/>
	<line class="st38" x1="1442.9" y1="1366.4" x2="1571.7" y2="1366.4"/>
	<line class="st38" x1="1442.9" y1="1380.4" x2="1571.7" y2="1380.4"/>
	<line class="st38" x1="1442.9" y1="1352.4" x2="1571.7" y2="1352.4"/>
	<line class="st38" x1="1442.9" y1="1268.4" x2="1571.7" y2="1268.4"/>
	<line class="st38" x1="1437.3" y1="1254.4" x2="1566.1" y2="1254.4"/>
	<line class="st38" x1="1426.1" y1="1240.4" x2="1554.9" y2="1240.4"/>
	<line class="st38" x1="1442.9" y1="1394.4" x2="1571.7" y2="1394.4"/>
	<line class="st38" x1="1442.9" y1="1408.4" x2="1571.7" y2="1408.4"/>
	<line class="st38" x1="1442.9" y1="1422.4" x2="1571.7" y2="1422.4"/>
	<line class="st38" x1="1442.9" y1="1436.4" x2="1571.7" y2="1436.4"/>
</g>
</svg>
